FILE "Brave Fencer Musashiden (Japan, Asia).bin" BINARY
  TRACK 01 MODE2/2352
    INDEX 01 00:00:00
  TRACK 02 AUDIO
    INDEX 00 36:44:02
    INDEX 01 36:46:02
  TRACK 03 AUDIO
    INDEX 00 37:44:42
    INDEX 01 37:46:42
  TRACK 04 AUDIO
    INDEX 00 38:26:08
    INDEX 01 38:28:08
REM LEADOUT 41:34:10
